# xmcd
#
# Track frame offsets: 
#        150
#        11935
#        22157
#        33177
#        44177
#        56422
#        66490
#        79362
#        90955
#        102515
#        115670
#        128305
#
# Disc length: 1864 seconds
#
# Revision: 0
# Processed by: cddbd v1.4PL0 Copyright (c) Steve Scherf et al.
# Submitted via: ExactAudioCopy v0.95a3
#
DISCID=9e07460c
DTITLE=Goldsboro, Bobby - 36 All-Time Greatest Hits (1 Of 3)
DYEAR=2000
DGENRE=Pop-Rock
TTITLE0=See The Funny Little Clown
TTITLE1=Whenever He Hold You
TTITLE2=Me Japanese Boy I Love You
TTITLE3=Little Things
TTITLE4=If You've Got A Heart
TTITLE5=Voodoo Woman
TTITLE6=If You Wait For Love
TTITLE7=It's Too Late
TTITLE8=Broomstick Cowboy
TTITLE9=Molly
TTITLE10=I Know You Better Than That
TTITLE11=It Hurts Me
EXTD=
EXTT0=
EXTT1=
EXTT2=
EXTT3=
EXTT4=
EXTT5=
EXTT6=
EXTT7=
EXTT8=
EXTT9=
EXTT10=
EXTT11=
PLAYORDER=
